<svg width="382" height="382" viewBox="0 0 382 382" fill="none" xmlns="http://www.w3.org/2000/svg">
<rect width="382" height="382" rx="191" fill="#2F4225"/>
<path d="M191 66C265.558 66 326 126.442 326 201V272H278V202.545C278 154.496 239.049 115.545 191 115.545C142.951 115.545 104 154.496 104 202.545L104 272H56L56 201C56 126.442 116.442 66 191 66ZM191 148.141C222.48 148.141 248 173.661 248 205.141V272H134L134 205.141C134 173.66 159.52 148.141 191 148.141Z" fill="#F3EEE2"/>
<rect x="134" y="272" width="114" height="52" fill="#F3EEE2"/>
</svg>
